<?xml version="1.0" encoding="UTF-8"?>
<svg xmlns="http://www.w3.org/2000/svg" style="display:none">
  <symbol id="icon-copy" viewBox="0 0 24 24">
    <rect x="9" y="9" width="8" height="8" rx="1" fill="none" stroke="currentColor" stroke-width="1.6"/>
    <rect x="5" y="5" width="10" height="10" rx="1" fill="none" stroke="currentColor" stroke-width="1.6"/>
  </symbol>
  <symbol id="icon-download" viewBox="0 0 24 24">
    <path d="M12 3v12" stroke="currentColor" stroke-width="1.8" stroke-linecap="round" stroke-linejoin="round" fill="none"/>
    <path d="M8 11l4 4 4-4" stroke="currentColor" stroke-width="1.8" stroke-linecap="round" stroke-linejoin="round" fill="none"/>
    <path d="M5 19h14" stroke="currentColor" stroke-width="1.8" stroke-linecap="round" fill="none"/>
  </symbol>
  <symbol id="icon-upload" viewBox="0 0 24 24">
    <path d="M12 21V9" stroke="currentColor" stroke-width="1.8" stroke-linecap="round" stroke-linejoin="round" fill="none"/>
    <path d="M8 13l4-4 4 4" stroke="currentColor" stroke-width="1.8" stroke-linecap="round" stroke-linejoin="round" fill="none"/>
    <path d="M5 3h14" stroke="currentColor" stroke-width="1.8" stroke-linecap="round" fill="none"/>
  </symbol>
  <symbol id="icon-trash" viewBox="0 0 24 24">
    <path d="M3 6h18" stroke="currentColor" stroke-width="1.8" stroke-linecap="round" fill="none"/>
    <path d="M8 6v12a2 2 0 0 0 2 2h4a2 2 0 0 0 2-2V6" stroke="currentColor" stroke-width="1.8" stroke-linecap="round" stroke-linejoin="round" fill="none"/>
    <path d="M10 11v6M14 11v6" stroke="currentColor" stroke-width="1.8" stroke-linecap="round" fill="none"/>
  </symbol>
  <symbol id="chev-right" viewBox="0 0 24 24">
    <path d="M9 6l6 6-6 6" stroke="currentColor" stroke-width="1.8" stroke-linecap="round" stroke-linejoin="round" fill="none"/>
  </symbol>
  <symbol id="icon-refresh" viewBox="0 0 24 24">
    <path d="M21 12a9 9 0 1 1-3-6" stroke="currentColor" stroke-width="1.8" stroke-linecap="round" stroke-linejoin="round" fill="none"/>
    <path d="M21 3v6h-6" stroke="currentColor" stroke-width="1.8" stroke-linecap="round" stroke-linejoin="round" fill="none"/>
  </symbol>
  <symbol id="icon-sun" viewBox="0 0 24 24">
    <circle cx="12" cy="12" r="3.2" fill="none" stroke="currentColor" stroke-width="1.6"/>
    <g stroke="currentColor" stroke-width="1.4" stroke-linecap="round">
      <path d="M12 2v2.5" />
      <path d="M12 19.5V22" />
      <path d="M4.2 4.2l1.8 1.8" />
      <path d="M17.9 17.9l1.8 1.8" />
      <path d="M2 12h2.5" />
      <path d="M19.5 12H22" />
      <path d="M4.2 19.8l1.8-1.8" />
      <path d="M17.9 6.1l1.8-1.8" />
    </g>
  </symbol>
  <symbol id="icon-moon" viewBox="0 0 24 24">
    <path d="M21 12.8A9 9 0 1 1 11.2 3 7 7 0 0 0 21 12.8z" fill="none" stroke="currentColor" stroke-width="1.6" stroke-linecap="round" stroke-linejoin="round"/>
  </symbol>
</svg>
